HIERARCHY
ROOT root
{
	OFFSET 0.000000 0.000000 0.000000
	CHANNELS 6 Xposition Yposition Zposition Zrotation Yrotation Xrotation
	JOINT lhip
	{
		OFFSET 0.058581 -0.082280 -0.017664
		CHANNELS 3 Zrotation Yrotation Xrotation
		JOINT lknee
		{
			OFFSET 0.043451 -0.386469 0.008037
			CHANNELS 3 Zrotation Yrotation Xrotation
			JOINT lankle
			{
				OFFSET -0.014790 -0.426874 -0.037428
				CHANNELS 3 Zrotation Yrotation Xrotation
				JOINT ltoe
				{
					OFFSET 0.041054 -0.060286 0.122042
					CHANNELS 3 Zrotation Yrotation Xrotation
					End Site
					{
						OFFSET 0.000000 0.000000 0.000000
					}
				}
			}
		}
	}
	JOINT rhip
	{
		OFFSET -0.060310 -0.090513 -0.013543
		CHANNELS 3 Zrotation Yrotation Xrotation
		JOINT rknee
		{
			OFFSET -0.043257 -0.383688 -0.004843
			CHANNELS 3 Zrotation Yrotation Xrotation
			JOINT rankle
			{
				OFFSET 0.019056 -0.420046 -0.034562
				CHANNELS 3 Zrotation Yrotation Xrotation
				JOINT rtoe
				{
					OFFSET -0.034840 -0.062106 0.130323
					CHANNELS 3 Zrotation Yrotation Xrotation
					End Site
					{
						OFFSET 0.000000 0.000000 0.000000
					}
				}
			}
		}
	}
	JOINT lowerback
	{
		OFFSET 0.004439 0.124404 -0.038385
		CHANNELS 3 Zrotation Yrotation Xrotation
		JOINT upperback
		{
			OFFSET 0.004488 0.137956 0.026820
			CHANNELS 3 Zrotation Yrotation Xrotation
			JOINT chest
			{
				OFFSET -0.002265 0.056032 0.002855
				CHANNELS 3 Zrotation Yrotation Xrotation
				JOINT lowerneck
				{
					OFFSET -0.013390 0.211636 -0.033468
					CHANNELS 3 Zrotation Yrotation Xrotation
					JOINT upperneck
					{
						OFFSET 0.010113 0.088937 0.050410
						CHANNELS 3 Zrotation Yrotation Xrotation
						End Site
						{
							OFFSET 0.000000 0.000000 0.000000
						}
					}
				}
				JOINT lclavicle
				{
					OFFSET 0.071702 0.114000 -0.018898
					CHANNELS 3 Zrotation Yrotation Xrotation
					JOINT lshoulder
					{
						OFFSET 0.122921 0.045205 -0.019046
						CHANNELS 3 Zrotation Yrotation Xrotation
						JOINT lelbow
						{
							OFFSET 0.255332 -0.015649 -0.022946
							CHANNELS 3 Zrotation Yrotation Xrotation
							JOINT lwrist
							{
								OFFSET 0.265709 0.012698 -0.007375
								CHANNELS 3 Zrotation Yrotation Xrotation
								End Site
								{
									OFFSET 0.000000 0.000000 0.000000
								}
							}
						}
					}
				}
				JOINT rclavicle
				{
					OFFSET -0.082954 0.112472 -0.023707
					CHANNELS 3 Zrotation Yrotation Xrotation
					JOINT rshoulder
					{
						OFFSET -0.113228 0.046853 -0.008472
						CHANNELS 3 Zrotation Yrotation Xrotation
						JOINT relbow
						{
							OFFSET -0.260127 -0.014369 -0.031269
							CHANNELS 3 Zrotation Yrotation Xrotation
							JOINT rwrist
							{
								OFFSET -0.269108 0.006794 -0.006027
								CHANNELS 3 Zrotation Yrotation Xrotation
								End Site
								{
									OFFSET 0.000000 0.000000 0.000000
								}
							}
						}
					}
				}
			}
		}
	}
}
MOTION
Frames: 10
Frame Time: 0.033333
2.055263 1.150821 0.984368 -77.269227 3.731134 83.808277 4.379699 3.210615 11.547881 -3.164858 -12.595347 10.067828 -0.252206 10.019356 -29.250373 0.000000 -0.000000 0.000000 -0.542300 -1.974537 -13.921631 1.689222 -4.791933 10.196130 6.224443 -5.267465 3.385678 0.000000 -0.000000 0.000000 1.575511 -1.179415 11.407565 1.584922 -2.211798 4.511464 0.663483 -2.049137 3.037376 -0.118012 -0.958748 -4.376219 4.418542 -2.432499 -10.137712 -23.265677 -3.600913 4.108454 -58.781802 -10.676601 10.164431 10.391224 -35.674316 8.952343 4.797123 -7.177480 -3.947385 21.180618 2.179892 1.035718 63.026634 0.191125 9.678664 -20.350545 30.068657 -5.243026 3.997076 3.765981 -7.113366 
2.055420 1.150132 0.981960 -77.170662 3.844189 82.417116 4.500211 3.539334 12.871913 -2.648306 -12.396948 10.502183 1.784943 10.171210 -26.671521 0.000000 -0.000000 0.000000 -1.101580 -2.293775 -12.409305 2.291555 -4.803667 10.198474 6.330511 -4.607367 4.369759 0.000000 -0.000000 0.000000 1.769755 -1.040177 12.685182 1.307837 -2.349306 4.074762 0.801270 -2.319378 3.833426 -0.106094 -0.769114 -5.543357 4.553404 -2.625604 -9.313055 -22.287353 -4.413169 4.314177 -59.699616 -10.510131 10.075818 10.426075 -34.902347 9.751772 3.853578 -7.745481 -5.319953 20.241262 2.276158 0.789890 63.976114 0.321420 9.327117 -20.070929 30.057608 -4.469451 4.090720 4.052410 -7.029480 
2.056155 1.149612 0.979342 -76.782864 3.591028 82.432108 4.198257 3.320401 12.527977 -2.661895 -12.234090 11.019525 2.395347 10.334205 -25.688655 0.000000 -0.000000 0.000000 -2.042928 -3.047268 -12.545813 2.720178 -5.123115 10.301162 7.033318 -3.977491 6.041889 0.000000 -0.000000 0.000000 1.491892 -0.651818 12.410038 1.162174 -2.631106 3.758382 1.054198 -2.711284 4.198865 -0.248544 -0.733033 -5.536768 4.822869 -2.643180 -9.058302 -21.557647 -4.725994 4.790022 -60.631505 -10.592771 10.030193 10.324859 -33.862254 10.100967 2.957926 -7.754852 -5.854832 19.672164 1.900804 1.005141 64.503975 0.404444 9.054652 -19.873691 30.138300 -4.123389 4.543573 3.840426 -6.999819 
2.059083 1.150891 0.980317 -76.252554 3.639803 85.596510 4.089337 1.642621 8.243990 -3.245769 -10.909343 12.185198 2.802012 10.168266 -25.168459 0.000000 -0.000000 0.000000 -2.486220 -2.275110 -15.102545 2.822928 -7.003802 8.476279 8.112848 -3.292782 8.909457 0.000000 -0.000000 0.000000 0.796687 -0.633579 8.583705 1.636573 -3.093224 4.896661 1.206159 -2.818304 2.452617 -0.497723 -1.175896 -2.749690 5.186549 -1.929298 -10.982025 -22.335016 -4.825403 6.355722 -60.385397 -9.942297 10.873246 11.573205 -32.316339 8.591506 3.758478 -6.468771 -5.553122 20.670220 2.014644 2.829637 63.457662 0.494263 9.502273 -19.972865 29.888407 -4.244665 4.193425 3.604826 -8.532481 
2.059604 1.150883 0.979963 -76.282135 3.681134 85.574159 4.186491 1.700132 8.206742 -3.341825 -10.931763 12.253134 2.822986 10.102873 -25.326750 0.000000 -0.000000 0.000000 -2.429720 -2.325687 -15.139938 2.845299 -6.814140 8.489124 8.116162 -3.453714 9.057607 0.000000 -0.000000 0.000000 0.720448 -0.604070 8.588649 1.682225 -3.073715 4.869092 1.246164 -2.814773 2.537675 -0.451728 -1.173614 -3.044091 5.213726 -1.929886 -10.836387 -22.226877 -4.979327 6.481647 -60.573515 -9.852734 10.838753 11.692606 -31.891150 8.546363 3.831257 -6.348432 -5.756718 20.665910 2.061464 2.851168 63.475658 0.439718 9.435814 -19.908907 29.796623 -4.283914 4.133009 3.661391 -8.523467 
2.059539 1.150298 0.979835 -76.952799 3.489185 85.574395 3.860456 1.952667 8.564895 -3.247468 -10.831747 11.825912 3.177526 10.296515 -25.076524 0.000000 -0.000000 0.000000 -2.474696 -2.525761 -15.278021 2.874246 -6.354760 8.484065 8.287905 -3.222705 9.422301 0.000000 -0.000000 0.000000 0.653205 -0.470366 8.809058 1.433795 -2.848138 4.534921 1.176460 -2.686695 2.178774 -0.441388 -1.319642 -2.853213 5.425236 -1.825827 -10.667667 -22.351454 -4.559350 6.514474 -60.413224 -9.181075 10.704561 11.317087 -31.325787 8.917454 3.688985 -6.344534 -5.525065 20.773070 1.826856 3.012566 63.566899 0.220073 9.374965 -19.563684 29.411904 -3.930770 4.169197 3.395615 -7.974913 
2.059104 1.149823 0.979781 -77.324994 3.439951 85.318787 3.791898 2.236447 9.166429 -3.190920 -11.017436 11.494002 3.317340 10.339914 -24.963149 0.000000 -0.000000 0.000000 -2.411695 -2.444633 -14.993415 2.846914 -6.034438 8.405243 8.200605 -3.325438 9.465002 0.000000 -0.000000 0.000000 0.641155 -0.568027 9.064853 1.274765 -2.683658 4.379896 1.088981 -2.612890 2.155108 -0.326842 -1.131531 -3.302955 5.413320 -1.829866 -10.317980 -22.573008 -4.076645 6.304433 -60.135236 -8.774421 10.474675 11.137564 -30.734124 9.171439 3.040637 -6.414735 -5.063254 20.915822 1.645584 3.091048 63.536170 0.128326 9.485472 -19.357070 29.273384 -3.765200 4.507113 3.508315 -7.841925 
2.058620 1.149160 0.979492 -77.569632 3.367216 85.099689 3.695865 2.498107 9.688436 -3.171629 -11.314183 11.074153 3.358286 10.305675 -25.273951 0.000000 -0.000000 0.000000 -2.424271 -2.473868 -14.802030 2.818722 -5.627239 8.455554 8.134089 -3.474448 9.238052 0.000000 -0.000000 0.000000 0.636009 -0.630239 9.124677 1.164959 -2.604643 4.327118 0.969343 -2.575617 2.353516 -0.043727 -1.228713 -3.967731 5.408116 -1.991428 -9.968824 -22.671923 -3.735183 6.120794 -59.987766 -8.578135 10.187300 11.060301 -30.229423 9.136443 3.011351 -6.171137 -4.671963 20.937850 1.593271 2.961314 63.639712 -0.026725 9.598775 -19.283035 29.037003 -3.769733 4.615918 3.635342 -7.841528 
2.058909 1.148994 0.979230 -77.528811 3.411987 85.095248 3.747444 2.543538 9.622755 -3.241646 -11.454335 11.210174 3.436909 10.235997 -25.518965 0.000000 -0.000000 0.000000 -2.362207 -2.529740 -14.860061 2.798821 -5.376357 8.539310 8.100540 -3.691082 9.247770 0.000000 -0.000000 0.000000 0.583717 -0.665790 9.134717 1.211194 -2.652662 4.279205 1.017161 -2.617679 2.375862 -0.049402 -1.577801 -3.862386 5.173767 -1.872220 -9.971550 -22.721602 -3.532836 6.131577 -59.868001 -8.423888 9.957299 10.974956 -29.937543 9.254200 3.210059 -5.748501 -4.509944 20.837219 1.479189 2.896535 63.691333 -0.215776 9.602637 -19.133929 29.132393 -3.638865 4.675879 3.405396 -7.798562 
2.059061 1.148508 0.978919 -77.559101 3.354697 85.128729 3.622088 2.565161 9.571195 -3.245978 -11.504350 11.304331 3.625842 10.234351 -25.419834 0.000000 -0.000000 0.000000 -2.372046 -2.635240 -14.965776 2.806055 -5.062717 8.625680 7.932145 -3.925217 9.142706 0.000000 -0.000000 0.000000 0.539328 -0.682086 9.126226 1.196946 -2.697143 4.224637 0.965857 -2.592143 2.351347 -0.083858 -1.771109 -3.591905 5.089930 -1.791992 -9.934867 -22.756196 -3.349593 6.101032 -59.665133 -8.366115 9.836968 10.672336 -29.536633 9.484637 3.658022 -5.615456 -4.615241 20.851684 1.339571 2.933105 63.672621 -0.319345 9.577291 -18.953040 29.136623 -3.534131 4.475835 3.306711 -7.540088 
